<?xml version="1.0" standalone="no"?>
<!DOCTYPE svg PUBLIC "-//W3C//DTD SVG 20010904//EN"
 "http://www.w3.org/TR/2001/REC-SVG-20010904/DTD/svg10.dtd">
<svg version="1.0" xmlns="http://www.w3.org/2000/svg"
 width="1182.000000pt" height="1182.000000pt" viewBox="0 0 1182.000000 1182.000000"
 preserveAspectRatio="xMidYMid meet">
<metadata>
Created by potrace 1.11, written by Peter Selinger 2001-2013
</metadata>
<g transform="translate(0.000000,1182.000000) scale(0.100000,-0.100000)"
fill="#000000" stroke="none">
<path d="M5727 10663 c-1 0 -54 -4 -117 -7 -135 -7 -237 -15 -265 -21 -11 -2
-47 -7 -80 -10 -33 -3 -100 -13 -150 -21 -49 -8 -101 -17 -115 -19 -78 -13
-106 -19 -220 -45 -69 -16 -152 -37 -185 -46 -33 -8 -67 -17 -75 -19 -48 -12
-150 -44 -166 -53 -10 -5 -23 -10 -29 -11 -21 -2 -282 -95 -340 -121 -11 -5
-55 -25 -98 -45 -43 -19 -80 -35 -83 -35 -6 0 -232 -113 -309 -155 -840 -456
-1559 -1177 -2015 -2020 -137 -253 -264 -548 -346 -805 -93 -292 -150 -524
-190 -770 -8 -52 -17 -106 -19 -120 -3 -14 -7 -54 -10 -90 -3 -36 -8 -76 -10
-90 -5 -29 -14 -141 -20 -255 -9 -165 -4 -517 9 -650 3 -27 8 -81 11 -120 4
-38 8 -77 10 -85 2 -8 7 -44 10 -80 4 -36 9 -74 11 -85 3 -11 7 -36 10 -55 47
-302 166 -733 284 -1026 258 -643 627 -1201 1120 -1694 166 -166 261 -253 361
-332 30 -23 56 -45 59 -49 8 -10 168 -131 245 -184 39 -27 91 -63 117 -82 26
-18 52 -33 58 -33 5 0 10 -4 10 -10 0 -5 5 -10 11 -10 6 0 29 -13 52 -28 103
-70 447 -254 592 -316 22 -10 55 -24 73 -32 122 -53 404 -156 492 -180 8 -2
71 -20 140 -39 69 -20 134 -37 145 -40 11 -2 72 -15 135 -30 63 -14 135 -28
159 -31 25 -3 47 -7 50 -9 3 -2 30 -6 60 -10 30 -4 62 -8 71 -10 9 -2 41 -6
71 -9 30 -4 70 -9 90 -12 216 -32 800 -37 1024 -9 17 2 57 7 90 10 70 8 118
14 160 20 17 3 48 7 70 11 36 5 300 57 350 69 232 54 585 166 740 235 22 10
74 32 116 49 212 88 568 284 794 439 401 273 712 553 1055 947 225 259 492
670 668 1030 115 233 284 682 322 855 4 19 24 100 43 180 37 148 68 313 86
455 6 44 13 102 17 129 3 28 7 68 9 90 2 23 7 82 11 131 16 172 9 715 -11 855
-2 14 -6 50 -10 80 -3 30 -8 66 -10 80 -3 14 -7 45 -10 70 -3 25 -7 56 -10 70
-11 59 -15 77 -20 115 -17 124 -112 488 -177 680 -120 356 -330 794 -525 1097
-87 136 -322 454 -388 524 -5 7 -30 36 -55 65 -106 125 -330 351 -460 464 -30
26 -68 59 -85 74 -57 50 -257 206 -343 268 -82 59 -372 243 -396 252 -6 2 -27
14 -47 27 -44 27 -328 171 -414 209 -294 131 -592 228 -945 310 -143 33 -427
79 -559 90 -41 4 -82 8 -92 10 -56 11 -603 27 -612 18z"/>
</g>
</svg>
